<?xml version="1.0" encoding="iso-8859-1"?>
<!-- Generator: Adobe Illustrator 18.1.1, SVG Export Plug-In . SVG Version: 6.00 Build 0)  -->
<svg xmlns="http://www.w3.org/2000/svg" xmlns:xlink="http://www.w3.org/1999/xlink"
	 version="1.1"
	 class=""
	 pageAlignment="none"
	 x="0px"
	 y="0px"

	 viewBox="0 0 25 38"
><defs/>
	<g type="LAYER"
	   name="workspace"
	   id="workspace"
	   locked="true"/>
	<g type="LAYER"
		name="Layer 01"
		id="Layer 01">
		<path
			  transform="matrix(0.7071067811865476 0.7071067811865475 -0.7071067811865475 0.7071067811865476 18.486797879377463 1.0952124499491034)"
			  width="7.5201862902464995"
			  height="25.372986263839994"
			  stroke-width="0"
			  stroke-miterlimit="3"
			  stroke="none"
			  fill="none"
			  d="M0,1.4210854715202004e-14 L7.520186290246485,0 L7.520186290246492,25.372986263839994 L-7.105427357601002e-15,25.372986263839984 L0,1.4210854715202004e-14 Z "/>
		<path transform="matrix(1 0 0 1 16.857383892861193 0.4652539723822606)"
			  width="7.608887406544888"
			  height="7.500200104998003"
			  stroke-width="0"
			  troke-miterlimit="3"
			  stroke="none"
			  fill="none"
			  d="M0,3.7501000524990005 C0,1.6789767950245995 1.7033072734993624,0 3.8044437032724474,0 C5.905580133045525,0 7.608887406544888,1.6789767950245995 7.608887406544888,3.7501000524990005 C7.608887406544888,5.821223309973403 5.905580133045525,7.500200104998003 3.8044437032724474,7.500200104998003 C1.7033072734993624,7.500200104998003 0,5.821223309973403 0,3.7501000524990005 Z "/><path transform="matrix(-0.7071067811865475 0.7071067811865476 -0.7071067811865476 -0.7071067811865475 18.486797879377463 36.953327671949594)" width="7.5201862902464995" height="25.372986263839984" stroke-width="0" stroke-miterlimit="3" stroke="none" fill="none" d="M0,1.4210854715202004e-14 L-7.520186290246482,0 L-7.520186290246496,25.372986263839984 L3.552713678800501e-15,25.372986263839977 L0,1.4210854715202004e-14 Z "/>
		<path transform="matrix(-1 1.2246467991473532e-16 -1.2246467991473532e-16 -1 16.857383892861137 37.58328614951648)"
			  width="7.608887406544895"
			  height="7.500200104998001"
			  stroke-width="0"
			  stroke-miterlimit="3"
			  stroke="none"
			  fill="none"
			  d="M1.4210854715202004e-14,3.7501000524990005 C1.4210854715202004e-14,1.678976795024596 -1.7033072734993482,0 -3.8044437032724403,0 C-5.905580133045518,0 -7.608887406544881,1.678976795024596 -7.608887406544881,3.7501000524990005 C-7.608887406544881,5.821223309973405 -5.905580133045518,7.500200104998001 -3.8044437032724403,7.500200104998001 C-1.7033072734993482,7.500200104998001 1.4210854715202004e-14,5.821223309973405 1.4210854715202004e-14,3.7501000524990005 Z "/>
	</g>
</svg>